<?xml version="1.0" encoding="UTF-8" ?>
<!DOCTYPE svg PUBLIC "-//W3C//DTD SVG 1.1//EN" "http://www.w3.org/Graphics/SVG/1.1/DTD/svg11.dtd">
<svg width="430pt" height="430pt" viewBox="0 0 430 430" version="1.1" xmlns="http://www.w3.org/2000/svg">
<path fill="#ffffff" d=" M 0.00 0.00 L 430.00 0.00 L 430.00 430.00 L 0.00 430.00 L 0.00 0.00 Z" />
<path fill="#010101" d=" M 30.01 29.85 C 53.36 30.11 76.72 29.91 100.06 29.96 C 99.89 53.29 100.20 76.64 99.90 99.98 C 76.55 100.09 53.20 99.89 29.86 100.07 C 30.19 76.67 29.87 53.26 30.01 29.85 Z" />
<path fill="#010101" d=" M 110.01 29.85 C 120.03 30.09 130.05 29.94 140.06 29.95 C 140.00 33.29 140.02 36.64 140.01 39.99 C 136.67 40.01 133.34 40.01 130.00 40.01 C 130.01 43.39 130.01 46.77 129.99 50.15 C 123.33 49.96 116.67 49.96 110.01 50.15 C 109.98 43.38 109.98 36.62 110.01 29.85 Z" />
<path fill="#010101" d=" M 150.01 29.85 C 156.67 30.04 163.33 30.04 169.99 29.85 C 170.01 33.23 170.01 36.61 170.00 39.99 C 173.34 39.99 176.67 39.99 180.01 40.01 C 180.02 43.34 180.00 46.66 180.06 49.98 C 176.73 50.01 173.39 50.05 170.06 50.10 C 169.80 63.32 170.33 76.60 169.79 89.79 C 166.58 90.38 163.27 89.91 160.02 90.01 C 160.01 93.34 160.00 96.67 160.00 100.00 C 163.38 100.00 166.76 99.99 170.15 100.00 C 170.26 96.87 169.26 93.46 170.51 90.51 C 173.39 89.16 176.77 90.68 179.81 89.81 C 180.31 86.58 179.92 83.27 179.98 80.02 C 183.32 79.99 186.66 79.99 190.00 79.99 C 189.99 76.61 189.99 73.23 190.01 69.85 C 196.67 70.04 203.33 70.04 209.99 69.85 C 210.00 73.23 210.01 76.61 210.00 79.99 C 213.33 79.99 216.66 80.00 219.99 79.99 C 219.98 76.64 220.00 73.28 219.93 69.93 C 223.26 70.00 226.59 70.02 229.92 69.92 C 230.02 66.59 230.02 63.25 229.86 59.93 C 233.24 60.02 236.62 60.00 240.00 60.00 C 240.00 56.67 239.98 53.35 239.98 50.02 C 233.30 50.06 226.61 49.99 219.92 50.09 C 220.00 46.73 220.02 43.37 220.02 40.02 C 216.68 40.00 213.34 40.01 210.00 40.01 C 209.99 43.36 209.97 46.72 210.13 50.06 C 206.76 50.02 203.39 50.03 200.02 50.02 C 200.01 53.35 200.00 56.67 200.00 60.00 C 196.61 59.99 193.23 59.98 189.85 60.07 C 190.00 56.75 190.00 53.42 190.13 50.09 C 193.41 50.01 196.70 50.02 199.99 49.98 C 200.00 46.66 200.00 43.33 200.00 40.00 C 203.33 40.00 206.66 40.00 210.00 40.00 C 209.99 36.62 209.99 33.23 210.04 29.85 C 216.68 30.05 223.32 30.05 229.96 29.85 C 230.01 33.23 230.01 36.61 230.00 40.00 C 246.67 40.00 263.34 40.00 280.00 40.00 C 280.00 43.34 280.00 46.68 279.98 50.02 C 273.33 50.05 266.68 50.02 260.04 50.02 C 259.95 56.67 259.96 63.32 260.03 69.97 C 266.68 70.08 273.33 69.97 279.99 69.97 C 279.98 66.64 280.00 63.32 280.00 60.00 C 286.64 59.98 293.27 60.02 299.91 59.97 C 299.97 56.65 299.99 53.33 299.97 50.02 C 296.66 49.99 293.34 50.02 290.04 50.14 C 290.00 46.76 289.99 43.38 289.99 40.00 C 286.66 40.00 283.33 40.00 280.00 40.00 C 280.00 36.66 280.00 33.32 280.02 29.98 C 290.00 29.88 299.98 30.13 309.96 29.85 C 310.05 36.61 309.96 43.38 310.02 50.15 C 313.33 49.98 316.65 49.97 319.97 49.98 C 320.03 66.65 319.99 83.32 320.00 100.00 C 316.62 99.99 313.24 99.98 309.86 100.07 C 310.01 96.75 309.99 93.43 309.95 90.10 C 306.64 90.04 303.33 90.00 300.03 90.02 C 300.01 96.67 300.01 103.33 300.03 109.98 C 303.34 110.02 306.65 110.00 309.96 109.84 C 310.01 113.23 310.01 116.61 310.00 120.00 C 303.33 120.00 296.67 120.00 290.00 120.01 C 290.01 123.39 290.00 126.77 289.99 130.15 C 286.66 129.99 283.34 130.03 280.02 130.02 C 280.01 133.35 280.00 136.67 280.00 140.00 C 283.38 140.00 286.76 140.02 290.14 139.93 C 289.86 150.00 290.05 160.08 290.04 170.15 C 293.34 170.00 296.65 169.99 299.96 170.01 C 300.01 173.33 300.03 176.65 300.10 179.97 C 306.73 180.02 313.36 179.99 320.00 180.00 C 319.99 176.66 320.01 173.32 320.03 169.98 C 323.34 169.97 326.66 169.98 329.98 170.15 C 330.04 163.38 329.94 156.62 330.04 149.85 C 333.38 150.00 336.73 149.99 340.07 149.91 C 340.00 153.27 340.02 156.63 340.01 159.99 C 343.34 160.00 346.67 160.00 350.00 160.00 C 349.99 163.38 350.00 166.76 350.02 170.14 C 353.34 170.00 356.67 169.99 360.00 169.98 C 360.00 166.65 360.00 163.32 360.00 160.00 C 363.33 160.00 366.66 160.00 370.00 160.00 C 369.99 156.61 369.99 153.23 370.04 149.84 C 373.38 149.99 376.72 150.01 380.06 150.02 C 380.00 153.34 380.02 156.66 380.02 159.98 C 376.68 160.01 373.34 160.01 370.00 160.01 C 370.00 163.31 369.98 166.61 370.09 169.91 C 366.73 170.01 363.37 170.04 360.01 170.04 C 360.00 176.69 359.99 183.33 360.02 189.98 C 366.70 189.97 373.39 189.98 380.08 189.93 C 379.94 196.61 380.10 203.29 379.94 209.97 C 383.28 209.98 386.62 210.01 389.96 210.15 C 390.00 206.77 389.99 203.38 390.00 200.00 C 393.33 200.00 396.66 200.00 400.00 200.00 C 399.99 210.00 400.02 220.01 399.97 230.01 C 396.72 230.07 393.42 229.68 390.20 230.20 C 389.73 233.44 390.08 236.74 390.01 240.00 C 393.34 240.00 396.67 240.00 400.00 240.00 C 400.00 246.67 400.00 253.33 400.00 260.00 C 396.69 260.00 393.38 259.99 390.07 260.05 C 390.05 263.30 389.69 266.59 390.19 269.81 C 393.42 270.32 396.72 269.92 399.98 269.97 C 400.01 283.32 400.01 296.68 399.97 310.03 C 396.73 310.14 393.42 309.61 390.22 310.22 C 389.64 313.43 390.13 316.74 390.02 320.00 C 393.34 320.00 396.67 320.00 400.00 320.00 C 400.00 326.67 400.00 333.33 400.00 340.00 C 393.37 340.01 386.74 339.99 380.11 340.03 C 380.01 343.34 379.98 346.65 379.90 349.97 C 376.62 350.06 373.35 350.04 370.08 349.91 C 369.89 343.31 370.03 336.71 370.05 330.10 C 373.38 330.04 376.72 330.00 380.05 329.97 C 380.01 326.65 380.00 323.33 379.98 320.01 C 373.32 319.99 366.66 320.00 360.00 320.00 C 360.00 329.99 359.99 339.99 360.02 349.98 C 363.39 349.96 366.76 349.98 370.13 349.93 C 369.97 353.28 369.99 356.64 370.00 359.99 C 373.34 359.99 376.68 360.00 380.02 359.98 C 380.02 356.62 380.00 353.27 379.92 349.91 C 383.26 349.98 386.61 350.00 389.96 349.85 C 390.01 353.23 390.01 356.61 390.00 360.00 C 393.33 360.00 396.67 360.00 400.00 360.00 C 400.00 366.67 400.00 373.33 400.00 380.00 C 396.62 379.99 393.24 379.98 389.86 380.07 C 390.01 376.75 389.99 373.42 389.95 370.10 C 386.65 370.04 383.34 370.00 380.05 370.01 C 379.99 373.33 379.98 376.66 379.90 379.98 C 376.57 380.04 373.24 380.02 369.91 379.94 C 370.07 373.29 369.98 366.65 370.00 360.00 C 366.67 360.00 363.33 360.00 360.00 360.00 C 360.00 366.66 360.00 373.33 360.00 379.99 C 363.32 379.99 366.63 379.98 369.95 380.06 C 370.07 383.34 370.01 386.62 369.88 389.90 C 363.29 390.07 356.70 390.07 350.12 389.90 C 349.87 383.30 350.05 376.70 349.94 370.10 C 346.60 370.04 343.27 370.01 339.93 369.98 C 340.00 366.65 339.98 363.33 339.99 360.01 C 336.66 360.00 333.33 360.01 330.00 360.01 C 330.01 363.38 330.00 366.76 329.99 370.15 C 326.66 369.99 323.34 370.03 320.02 370.02 C 319.99 376.67 320.00 383.32 320.02 389.98 C 326.70 389.94 333.38 390.01 340.06 389.95 C 340.00 393.29 340.02 396.64 340.01 399.99 C 330.01 400.01 320.00 399.99 310.00 400.00 C 309.99 396.61 310.00 393.22 309.96 389.84 C 306.67 390.02 303.38 390.08 300.09 389.96 C 299.99 386.65 299.99 383.34 300.09 380.03 C 303.37 379.99 306.66 380.00 309.94 379.95 C 309.97 376.66 310.00 373.37 310.12 370.09 C 313.41 370.00 316.70 370.02 319.98 370.02 C 320.00 366.68 320.00 363.34 320.00 360.00 C 316.66 360.00 313.33 360.00 310.00 360.00 C 309.96 353.34 310.05 346.69 309.94 340.04 C 306.70 339.88 303.41 340.34 300.20 339.80 C 299.64 336.58 300.09 333.28 299.98 330.03 C 296.66 329.98 293.35 330.00 290.04 330.16 C 289.99 326.77 289.99 323.39 290.00 320.00 C 293.33 320.00 296.65 320.00 299.99 319.99 C 299.98 316.63 300.00 313.27 299.93 309.91 C 306.61 310.01 313.30 309.94 319.98 309.98 C 319.98 306.65 320.00 303.32 320.00 300.00 C 316.62 299.99 313.23 299.98 309.86 300.07 C 310.14 293.39 309.93 286.70 310.00 280.01 C 306.66 280.01 303.32 280.00 299.98 279.98 C 299.98 276.62 300.00 273.26 299.93 269.91 C 303.25 269.97 306.58 270.01 309.91 269.93 C 310.12 263.32 309.83 256.70 310.12 250.09 C 313.41 250.00 316.70 250.02 319.99 250.00 C 320.00 246.67 320.00 243.33 320.00 240.00 C 323.33 240.00 326.67 240.00 330.01 240.00 C 330.01 236.68 329.99 233.36 329.91 230.05 C 326.61 229.99 323.31 229.97 320.01 229.98 C 320.00 233.32 320.00 236.66 320.00 240.00 C 310.00 240.00 300.00 240.00 290.00 240.00 C 289.99 236.61 289.99 233.23 290.04 229.85 C 300.03 230.12 310.02 229.90 320.01 229.97 C 320.01 226.64 320.00 223.32 319.99 220.00 C 316.61 219.99 313.23 219.98 309.86 220.07 C 310.14 213.39 309.93 206.69 310.00 200.00 C 313.33 200.00 316.66 200.00 320.00 200.00 C 320.00 196.66 320.00 193.32 319.98 189.98 C 306.66 189.97 293.34 189.97 280.02 189.98 C 280.00 193.32 280.00 196.66 280.00 200.00 C 286.67 200.01 293.34 199.99 300.01 200.01 C 300.02 203.36 300.00 206.71 300.06 210.06 C 290.05 210.06 280.03 209.91 270.01 210.15 C 269.99 200.12 269.94 190.08 270.06 180.05 C 273.37 179.98 276.68 179.99 280.00 179.99 C 280.00 170.00 280.01 160.01 279.99 150.02 C 276.70 149.98 273.41 149.99 270.12 149.91 C 270.00 146.62 269.98 143.32 269.93 140.03 C 266.69 139.89 263.40 140.34 260.20 139.80 C 259.64 136.58 260.09 133.28 259.98 130.03 C 253.32 130.01 246.67 130.05 240.02 130.02 C 240.01 133.35 240.00 136.67 240.00 140.00 C 236.62 139.99 233.24 139.98 229.86 140.07 C 230.01 136.75 229.99 133.43 229.95 130.10 C 226.61 130.04 223.27 130.01 219.94 129.98 C 220.00 126.66 219.98 123.34 219.98 120.02 C 229.99 119.98 239.99 120.02 250.00 120.00 C 250.00 116.61 250.00 113.23 249.98 109.86 C 243.36 110.11 236.74 110.06 230.12 109.90 C 229.87 103.30 230.05 96.70 229.94 90.10 C 226.64 90.04 223.33 90.00 220.03 90.02 C 220.01 100.01 220.03 109.99 220.02 119.98 C 216.68 120.01 213.34 120.01 210.00 120.01 C 210.03 126.65 209.96 133.30 210.05 139.94 C 213.33 140.00 216.62 140.00 219.91 140.03 C 220.02 143.34 220.04 146.66 219.97 149.98 C 216.66 150.01 213.35 149.99 210.04 149.85 C 210.00 153.23 210.01 156.61 210.00 159.99 C 216.67 160.00 223.33 160.00 230.00 159.99 C 229.99 156.61 229.99 153.23 230.01 149.85 C 233.33 150.00 236.66 149.97 239.98 149.98 C 240.00 153.32 240.00 156.66 240.00 160.00 C 236.66 160.00 233.33 160.00 230.00 160.00 C 229.99 163.38 230.00 166.76 230.02 170.14 C 243.32 169.91 256.63 170.02 269.94 170.09 C 269.99 173.37 270.00 176.66 270.10 179.94 C 266.76 180.00 263.43 180.02 260.10 180.03 C 260.03 183.35 260.01 186.67 259.96 189.99 C 256.65 190.00 253.34 189.99 250.04 189.85 C 250.01 193.31 250.01 196.76 249.93 200.22 C 246.73 198.99 243.39 198.14 240.01 197.55 C 240.05 195.15 240.02 192.74 240.00 190.33 C 238.40 190.04 236.56 189.81 235.84 188.12 C 232.04 182.20 226.37 177.77 220.05 174.80 C 220.02 173.16 220.00 171.52 219.99 169.88 C 216.23 170.25 212.05 169.08 208.71 171.31 C 205.06 171.60 201.44 170.79 197.89 170.07 C 185.27 169.94 172.64 170.09 160.02 170.02 C 160.00 183.33 160.00 196.65 160.05 209.96 C 161.24 210.02 162.43 210.08 163.63 210.14 C 164.47 215.35 166.80 220.12 169.77 224.43 C 170.05 226.22 170.07 228.04 170.19 229.86 C 160.15 230.16 150.09 229.93 140.05 229.98 C 140.27 226.85 139.24 223.44 140.49 220.49 C 143.44 219.28 146.82 220.29 149.95 219.96 C 150.01 203.33 150.06 186.71 149.92 170.08 C 146.63 169.99 143.33 170.01 140.04 170.02 C 139.99 173.35 139.99 176.67 139.90 180.00 C 136.67 180.12 133.39 179.65 130.20 180.20 C 129.63 183.40 130.09 186.69 130.11 189.93 C 133.42 190.01 136.74 190.00 140.06 189.93 C 140.00 193.28 140.02 196.63 140.01 199.99 C 136.67 200.00 133.33 200.00 130.00 200.00 C 129.99 196.64 129.96 193.28 130.13 189.93 C 126.76 189.99 123.39 189.98 120.02 189.98 C 119.99 196.66 119.99 203.34 120.02 210.02 C 126.66 210.07 133.31 209.93 139.95 210.02 C 139.92 213.28 140.36 216.58 139.80 219.80 C 136.59 220.34 133.31 219.89 130.07 220.03 C 130.02 223.32 130.00 226.62 129.88 229.91 C 126.59 229.98 123.29 229.99 120.00 230.02 C 120.00 233.35 120.00 236.67 120.00 240.00 C 116.67 240.00 113.33 240.00 110.00 240.00 C 109.93 246.69 110.16 253.38 109.86 260.06 C 113.24 259.98 116.62 259.99 120.00 260.00 C 120.00 266.66 120.00 273.33 120.00 280.00 C 116.66 280.00 113.33 280.00 109.99 280.00 C 109.99 283.32 110.00 286.63 110.09 289.95 C 113.39 290.01 116.69 290.03 119.99 290.03 C 120.00 286.69 120.00 283.34 120.00 280.00 C 123.33 280.00 126.67 280.00 130.01 280.00 C 130.01 283.38 130.01 286.76 129.99 290.15 C 126.66 289.99 123.34 290.03 120.01 290.02 C 120.01 293.35 120.00 296.67 120.00 300.00 C 126.63 300.01 133.27 299.97 139.91 300.03 C 139.98 303.34 139.99 306.67 140.05 309.99 C 143.34 309.99 146.64 309.95 149.94 309.90 C 150.01 303.30 150.01 296.70 149.94 290.10 C 146.61 290.04 143.27 290.01 139.94 289.98 C 140.00 286.66 139.98 283.33 139.99 280.01 C 153.33 279.98 166.67 280.03 180.02 279.98 C 180.01 276.66 180.00 273.34 180.05 270.02 C 173.38 269.92 166.70 270.04 160.03 270.01 C 160.01 266.67 159.99 263.34 160.00 260.00 C 163.38 259.99 166.76 259.98 170.14 260.06 C 169.95 256.74 169.95 253.41 170.08 250.08 C 173.38 249.96 176.68 249.98 179.98 250.06 C 180.18 247.34 179.41 244.33 180.56 241.80 C 183.37 240.05 186.67 239.74 189.91 239.97 C 189.98 239.29 190.11 237.93 190.18 237.26 C 193.70 238.30 197.48 238.31 200.86 239.80 C 197.25 240.15 193.62 239.92 190.00 239.98 C 189.98 243.36 189.99 246.75 190.02 250.14 C 196.67 249.96 203.33 249.94 209.98 250.14 C 210.00 248.75 210.02 247.36 210.05 245.97 C 213.11 248.37 216.35 250.57 219.88 252.26 C 219.95 254.83 220.03 257.41 220.13 259.98 C 226.75 260.01 233.38 259.99 240.00 260.00 C 240.00 263.34 239.99 266.68 239.97 270.02 C 236.65 270.03 233.33 270.01 230.02 269.85 C 230.00 273.23 229.99 276.61 230.00 280.00 C 226.65 280.00 223.32 280.00 219.98 279.98 C 219.97 276.66 219.98 273.34 220.06 270.02 C 216.73 270.01 213.40 270.03 210.08 269.91 C 209.95 266.61 209.95 263.30 210.14 260.00 C 206.76 260.01 203.38 260.00 200.00 260.00 C 200.00 263.33 200.01 266.65 200.02 269.98 C 203.39 269.97 206.76 269.98 210.13 269.94 C 209.97 273.28 209.99 276.64 210.00 279.99 C 213.34 279.99 216.68 279.99 220.02 280.02 C 220.03 283.37 220.02 286.73 219.93 290.09 C 216.63 290.01 213.33 290.00 210.04 290.15 C 209.99 286.76 209.99 283.38 210.00 280.00 C 199.99 280.01 189.99 279.98 179.99 280.02 C 179.98 283.33 180.00 286.65 179.95 289.97 C 183.28 290.00 186.62 290.04 189.95 290.11 C 190.00 293.38 190.01 296.66 189.96 299.94 C 186.67 300.01 183.39 300.01 180.11 300.03 C 180.01 303.34 179.98 306.65 179.90 309.97 C 176.62 309.95 173.33 309.95 170.05 309.90 C 169.97 306.60 169.95 303.30 170.14 300.00 C 166.76 300.01 163.38 300.00 160.00 300.00 C 160.00 306.67 160.00 313.33 160.00 320.00 C 163.33 320.00 166.67 320.00 170.00 320.00 C 170.07 326.69 169.86 333.39 170.14 340.07 C 166.76 339.98 163.38 339.99 160.00 340.00 C 160.00 343.32 160.01 346.65 160.02 349.98 C 163.34 349.97 166.66 350.00 169.99 349.85 C 170.08 356.59 169.87 363.33 170.13 370.06 C 166.76 370.02 163.39 370.03 160.02 370.02 C 160.01 373.34 160.00 376.67 160.00 380.00 C 163.31 379.99 166.63 379.98 169.95 380.06 C 170.07 383.34 170.01 386.62 169.88 389.90 C 166.60 390.00 163.31 390.02 160.02 390.02 C 160.01 386.68 160.00 383.34 160.00 380.00 C 156.68 380.01 153.37 380.01 150.06 379.95 C 149.96 373.30 149.99 366.65 150.00 360.01 C 143.33 360.00 136.67 359.99 130.01 360.00 C 130.00 356.61 130.00 353.23 129.98 349.85 C 126.66 350.01 123.34 350.03 120.03 350.02 C 119.99 343.35 120.00 336.69 119.98 330.02 C 116.66 330.03 113.33 329.99 110.01 330.15 C 109.99 326.76 109.99 323.38 109.99 320.00 C 113.33 320.00 116.66 320.00 120.00 320.00 C 120.00 323.33 120.00 326.65 120.01 329.98 C 123.30 330.02 126.59 330.01 129.88 330.09 C 130.00 333.37 130.02 336.66 130.06 339.95 C 140.04 340.05 150.02 339.97 160.00 340.00 C 160.00 336.67 159.98 333.34 159.98 330.02 C 156.66 330.03 153.33 329.99 150.01 330.15 C 149.99 326.76 149.99 323.39 150.00 320.01 C 143.33 320.01 136.67 319.99 130.01 320.00 C 130.00 316.62 130.00 313.24 129.98 309.86 C 120.01 310.11 110.04 309.93 100.06 309.95 C 99.74 306.82 100.71 303.44 99.51 300.50 C 96.57 299.26 93.17 300.30 90.05 299.96 C 90.00 296.67 90.01 293.38 90.05 290.09 C 93.34 290.04 96.63 290.03 99.92 290.08 C 100.01 286.73 100.03 283.37 100.01 280.02 C 96.67 280.00 93.34 280.00 90.00 280.00 C 89.99 276.64 89.96 273.28 90.13 269.93 C 83.43 269.97 76.72 270.08 70.02 269.86 C 69.97 286.57 70.02 303.28 70.00 320.00 C 66.66 320.00 63.32 320.00 59.99 319.99 C 60.01 296.66 59.91 273.34 60.04 250.01 C 63.35 250.01 66.65 250.04 69.96 250.11 C 70.05 253.40 70.04 256.70 69.86 260.00 C 73.24 259.99 76.62 260.00 80.00 260.00 C 80.00 253.33 80.00 246.66 80.00 240.00 C 83.33 240.00 86.66 240.00 90.00 240.00 C 89.99 236.61 89.99 233.22 90.04 229.84 C 93.33 230.03 96.62 230.08 99.91 229.96 C 100.00 226.65 99.99 223.34 99.90 220.04 C 96.62 220.01 93.33 220.01 90.04 219.94 C 90.00 216.66 90.01 213.38 90.05 210.10 C 96.67 210.04 103.29 209.87 109.91 210.08 C 110.28 216.65 109.61 223.27 110.20 229.80 C 113.42 230.36 116.73 229.87 119.99 229.95 C 119.99 223.31 120.01 216.66 119.98 210.02 C 116.61 210.03 113.24 210.02 109.87 210.06 C 110.13 203.33 109.92 196.59 110.01 189.85 C 113.33 190.00 116.66 189.97 119.98 189.98 C 119.98 186.65 120.00 183.33 120.00 180.00 C 110.02 179.97 100.03 180.07 90.04 179.94 C 90.00 176.66 90.01 173.38 90.05 170.10 C 100.02 169.97 110.00 170.02 119.97 169.99 C 119.99 173.32 120.00 176.65 120.00 179.99 C 123.14 179.71 126.53 180.69 129.50 179.50 C 129.63 179.17 129.89 178.49 130.02 178.16 C 130.02 168.72 129.94 159.28 130.04 149.84 C 133.38 149.99 136.72 150.01 140.07 150.02 C 140.00 153.34 140.02 156.66 140.01 159.99 C 143.34 160.00 146.67 159.99 150.00 159.99 C 149.99 156.61 149.99 153.23 150.01 149.85 C 156.72 150.08 163.42 149.95 170.13 149.94 C 169.97 153.28 169.99 156.64 170.00 159.99 C 173.33 159.99 176.67 160.00 180.01 159.99 C 180.01 156.66 180.00 153.34 180.05 150.02 C 176.73 150.01 173.41 150.03 170.09 149.92 C 169.96 146.63 169.97 143.34 170.04 140.06 C 173.33 139.99 176.61 139.99 179.90 139.97 C 179.97 136.65 180.00 133.34 179.96 130.02 C 176.65 129.99 173.34 130.00 170.04 130.16 C 169.99 126.77 169.99 123.39 170.00 120.00 C 163.33 120.00 156.66 120.00 149.99 120.00 C 149.99 116.62 149.99 113.23 150.01 109.85 C 153.33 110.00 156.66 109.97 159.98 109.98 C 159.98 106.65 160.00 103.33 160.00 100.00 C 156.62 99.99 153.24 99.98 149.86 100.07 C 150.02 96.75 149.99 93.42 149.94 90.09 C 146.65 90.04 143.36 90.03 140.07 90.08 C 139.98 86.73 139.97 83.37 139.98 80.02 C 146.65 79.98 153.33 80.01 160.00 80.00 C 160.00 73.33 160.00 66.67 160.00 60.00 C 153.36 59.99 146.73 60.03 140.10 59.97 C 139.98 56.66 139.96 53.35 140.02 50.04 C 146.68 49.91 153.33 50.08 159.98 50.02 C 160.00 46.68 160.00 43.34 160.00 40.00 C 156.66 40.00 153.33 40.00 149.99 40.00 C 149.99 36.62 149.99 33.23 150.01 29.85 Z" />
<path fill="#010101" d=" M 190.01 29.85 C 193.33 30.00 196.66 29.97 199.98 29.98 C 200.00 33.32 200.00 36.66 200.00 40.00 C 196.66 40.00 193.33 40.00 189.99 40.00 C 189.99 36.62 189.99 33.23 190.01 29.85 Z" />
<path fill="#010101" d=" M 330.04 29.85 C 353.35 30.13 376.67 29.88 399.98 29.98 C 400.02 53.32 399.99 76.66 400.00 100.00 C 376.68 99.97 353.36 100.08 330.05 99.94 C 329.96 76.58 329.98 53.21 330.04 29.85 Z" />
<path fill="#ffffff" d=" M 40.00 40.00 C 56.67 40.00 73.33 40.00 90.00 40.00 C 89.99 56.71 90.03 73.43 89.98 90.14 C 73.33 89.87 56.67 90.11 40.02 90.02 C 39.98 73.34 40.01 56.67 40.00 40.00 Z" />
<path fill="#ffffff" d=" M 280.00 40.00 C 283.33 40.00 286.66 40.00 289.99 40.00 C 289.99 43.38 290.00 46.76 290.04 50.14 C 293.34 50.02 296.66 49.99 299.97 50.02 C 299.99 53.33 299.97 56.65 299.91 59.97 C 293.27 60.02 286.64 59.98 280.00 60.00 C 280.00 63.32 279.98 66.64 279.99 69.97 C 273.33 69.97 266.68 70.08 260.03 69.97 C 259.96 63.32 259.95 56.67 260.04 50.02 C 266.68 50.02 273.33 50.05 279.98 50.02 C 280.00 46.68 280.00 43.34 280.00 40.00 Z" />
<path fill="#ffffff" d=" M 339.99 40.02 C 356.66 39.98 373.33 40.00 390.00 40.01 C 389.97 56.72 390.03 73.43 389.96 90.15 C 373.29 89.84 356.61 90.16 339.94 89.98 C 340.10 73.32 340.00 56.67 339.99 40.02 Z" />
<path fill="#010101" d=" M 50.05 50.10 C 60.03 49.95 70.01 50.06 79.99 50.02 C 80.01 60.01 80.00 70.00 80.00 80.00 C 70.00 80.00 60.00 80.00 50.00 80.00 C 50.00 70.03 49.96 60.06 50.05 50.10 Z" />
<path fill="#010101" d=" M 210.08 50.09 C 213.36 49.96 216.64 49.94 219.91 50.04 C 220.00 53.35 220.00 56.67 219.91 59.98 C 216.62 60.02 213.33 60.01 210.05 59.94 C 209.97 56.66 209.96 53.37 210.08 50.09 Z" />
<path fill="#010101" d=" M 350.12 50.09 C 360.07 49.99 370.02 49.98 379.97 50.03 C 380.08 60.02 380.00 70.00 380.01 79.99 C 370.01 80.01 360.00 79.99 350.00 80.00 C 350.06 70.03 349.84 60.06 350.12 50.09 Z" />
<path fill="#010101" d=" M 109.86 59.93 C 113.24 60.02 116.62 60.00 120.00 60.00 C 120.00 63.33 120.01 66.65 120.02 69.98 C 126.70 69.94 133.38 70.01 140.06 69.95 C 140.00 73.29 140.02 76.64 140.02 79.98 C 136.68 80.01 133.34 80.01 130.00 80.01 C 129.99 83.36 129.97 86.72 130.13 90.06 C 126.76 90.02 123.39 90.03 120.02 90.02 C 120.01 93.35 120.00 96.67 120.00 100.00 C 116.62 99.99 113.24 99.98 109.86 100.07 C 110.08 86.70 110.08 73.30 109.86 59.93 Z" />
<path fill="#ffffff" d=" M 229.87 69.93 C 236.57 69.97 243.28 70.08 249.98 69.86 C 250.00 73.24 250.00 76.62 250.00 80.00 C 260.00 80.00 270.00 80.00 280.00 80.00 C 280.00 83.34 280.00 86.68 279.98 90.02 C 276.70 90.02 273.41 90.00 270.13 90.09 C 270.00 93.37 269.97 96.66 269.94 99.95 C 266.66 100.00 263.38 100.00 260.10 99.97 C 260.03 96.65 260.01 93.33 259.96 90.01 C 256.65 90.01 253.35 90.04 250.05 90.11 C 249.96 93.40 249.95 96.70 250.14 100.00 C 246.76 99.99 243.38 100.00 240.00 100.00 C 240.00 93.33 240.00 86.67 240.00 80.00 C 236.67 80.00 233.34 80.00 230.01 80.00 C 230.01 76.64 230.03 73.29 229.87 69.93 Z" />
<path fill="#ffffff" d=" M 280.02 69.98 C 283.34 69.98 286.66 70.01 289.98 69.86 C 290.00 73.24 290.00 76.62 290.00 80.00 C 286.67 80.00 283.33 80.00 280.00 80.00 C 280.00 76.66 280.00 73.32 280.02 69.98 Z" />
<path fill="#ffffff" d=" M 190.01 80.00 C 193.34 80.00 196.67 80.00 200.00 80.00 C 200.00 83.34 200.00 86.68 199.98 90.02 C 196.61 90.02 193.24 90.01 189.87 90.07 C 190.03 86.71 190.01 83.36 190.01 80.00 Z" />
<path fill="#010101" d=" M 130.08 90.09 C 133.35 89.96 136.63 89.94 139.91 90.04 C 140.07 96.68 140.06 103.34 139.96 109.99 C 136.66 109.99 133.35 109.96 130.05 109.90 C 130.03 103.29 129.90 96.69 130.08 90.09 Z" />
<path fill="#ffffff" d=" M 180.49 90.53 C 183.37 89.30 186.83 90.24 189.93 90.10 C 190.02 93.38 190.00 96.66 189.95 99.95 C 186.68 100.01 183.40 100.00 180.12 99.98 C 180.29 96.86 179.25 93.48 180.49 90.53 Z" />
<path fill="#ffffff" d=" M 200.03 89.97 C 203.31 90.00 206.59 90.02 209.87 90.10 C 209.97 93.40 209.97 96.70 210.14 100.00 C 206.76 99.99 203.38 100.00 200.00 100.00 C 200.00 96.65 200.01 93.31 200.03 89.97 Z" />
<path fill="#ffffff" d=" M 280.03 89.97 C 283.31 90.00 286.59 90.02 289.88 90.10 C 290.13 100.06 289.95 110.03 290.00 120.00 C 286.67 120.00 283.33 120.00 280.00 120.00 C 280.01 109.99 279.97 99.98 280.03 89.97 Z" />
<path fill="#010101" d=" M 59.94 110.02 C 63.28 110.01 66.62 109.99 69.96 109.84 C 70.01 113.23 70.01 116.61 70.00 120.00 C 73.34 120.00 76.67 120.00 80.00 120.00 C 80.00 126.67 80.00 133.33 80.00 140.00 C 83.31 140.00 86.63 140.01 89.94 139.94 C 90.04 136.66 90.02 133.38 90.05 130.10 C 93.36 130.04 96.68 130.01 99.99 130.03 C 100.10 133.28 99.65 136.58 100.20 139.80 C 103.41 140.37 106.71 139.88 109.95 139.93 C 109.97 136.65 110.00 133.37 110.12 130.09 C 113.41 130.01 116.70 130.00 120.00 129.97 C 120.00 126.65 120.00 123.32 120.00 120.00 C 126.67 120.01 133.34 119.99 140.01 120.01 C 139.99 126.67 140.11 133.32 139.90 139.98 C 133.27 140.03 126.63 139.99 120.00 140.00 C 120.00 146.67 120.00 153.33 120.00 160.00 C 110.00 160.00 100.00 160.00 90.00 160.00 C 89.99 156.64 89.96 153.28 90.13 149.93 C 86.76 149.99 83.39 149.98 80.02 149.98 C 79.98 156.66 80.02 163.34 79.98 170.02 C 73.33 170.05 66.69 170.02 60.04 170.02 C 59.99 173.34 59.98 176.66 59.91 179.98 C 56.62 180.02 53.33 180.01 50.05 179.94 C 49.94 173.30 50.02 166.65 50.00 160.00 C 46.67 160.00 43.33 160.00 40.00 160.00 C 40.00 169.99 39.99 179.99 40.02 189.98 C 43.34 189.97 46.66 190.00 49.99 189.85 C 50.08 196.59 49.87 203.33 50.13 210.06 C 46.76 210.02 43.39 210.03 40.02 210.02 C 40.02 213.35 40.00 216.67 40.00 220.00 C 36.62 219.99 33.24 219.98 29.86 220.07 C 30.14 213.39 29.93 206.69 30.00 200.00 C 33.33 200.00 36.66 200.00 40.00 200.00 C 40.00 196.66 40.00 193.32 39.98 189.98 C 36.70 189.98 33.41 189.99 30.12 189.91 C 29.90 169.98 29.91 150.03 30.12 130.09 C 33.41 130.01 36.70 130.00 40.00 129.98 C 40.00 126.65 40.00 123.32 40.00 120.00 C 43.34 120.00 46.67 120.00 50.00 120.00 C 50.01 123.39 50.00 126.77 50.04 130.15 C 56.68 129.90 63.32 129.90 69.96 130.16 C 70.00 126.77 69.99 123.39 70.00 120.01 C 66.66 120.01 63.32 120.01 59.99 119.99 C 59.98 116.66 60.00 113.34 59.94 110.02 Z" />
<path fill="#010101" d=" M 90.04 109.84 C 93.38 109.99 96.72 110.01 100.06 110.02 C 100.00 113.34 100.02 116.66 100.01 119.99 C 96.67 120.00 93.34 120.00 90.00 120.00 C 89.99 116.61 89.99 113.23 90.04 109.84 Z" />
<path fill="#ffffff" d=" M 179.95 110.03 C 183.28 110.02 186.62 109.99 189.96 109.85 C 190.00 113.23 189.99 116.61 190.00 119.99 C 186.66 119.99 183.32 120.00 179.99 119.99 C 179.98 116.67 180.00 113.35 179.95 110.03 Z" />
<path fill="#ffffff" d=" M 259.95 110.03 C 263.28 110.02 266.62 109.99 269.96 109.85 C 270.00 113.23 269.99 116.61 270.00 119.99 C 266.66 119.99 263.32 120.00 259.99 119.99 C 259.98 116.67 260.00 113.35 259.95 110.03 Z" />
<path fill="#010101" d=" M 339.94 109.94 C 349.95 109.94 359.97 110.09 369.99 109.85 C 370.08 116.59 369.87 123.33 370.13 130.06 C 366.76 130.02 363.39 130.03 360.02 130.02 C 360.00 126.68 360.00 123.34 360.00 120.00 C 353.33 119.99 346.66 120.01 339.99 119.99 C 339.98 116.64 339.99 113.29 339.94 109.94 Z" />
<path fill="#010101" d=" M 379.94 109.97 C 386.62 109.99 393.30 109.95 399.98 109.98 C 400.02 133.32 399.99 156.66 400.00 180.00 C 396.69 180.01 393.38 180.02 390.08 179.94 C 390.01 176.65 389.98 173.36 389.92 170.08 C 386.64 170.05 383.36 170.04 380.08 170.07 C 379.98 166.72 379.97 163.37 379.98 160.02 C 383.31 159.99 386.65 159.99 390.00 159.99 C 389.97 150.02 390.04 140.06 389.94 130.09 C 386.60 130.04 383.26 130.03 379.93 130.08 C 380.02 123.38 380.00 116.67 379.94 109.97 Z" />
<path fill="#ffffff" d=" M 270.00 120.00 C 273.33 120.00 276.66 120.00 280.00 120.00 C 280.00 123.34 280.00 126.68 279.98 130.02 C 276.66 130.02 273.34 129.99 270.02 130.14 C 270.00 126.76 269.99 123.38 270.00 120.00 Z" />
<path fill="#010101" d=" M 150.12 130.10 C 153.41 130.00 156.69 129.97 159.98 129.98 C 159.99 133.32 160.00 136.66 160.00 140.00 C 156.62 139.99 153.23 139.98 149.85 140.07 C 150.00 136.75 150.01 133.42 150.12 130.10 Z" />
<path fill="#ffffff" d=" M 190.12 130.10 C 193.40 130.02 196.69 130.00 199.97 129.98 C 200.01 136.66 200.01 143.34 199.97 150.02 C 196.69 149.99 193.40 149.98 190.12 149.90 C 189.94 143.30 189.94 136.70 190.12 130.10 Z" />
<path fill="#010101" d=" M 310.12 130.10 C 313.40 130.00 316.69 129.97 319.98 129.98 C 319.99 133.32 320.00 136.66 320.00 140.00 C 316.68 140.01 313.36 140.02 310.05 139.94 C 309.93 136.66 309.98 133.38 310.12 130.10 Z" />
<path fill="#010101" d=" M 330.05 130.10 C 336.68 129.99 343.32 129.99 349.95 130.11 C 350.03 133.42 350.04 136.75 349.86 140.06 C 353.24 139.98 356.62 139.99 360.00 140.00 C 360.00 143.33 359.98 146.66 359.99 149.99 C 353.36 149.90 346.73 150.13 340.10 149.96 C 340.02 146.65 339.98 143.34 339.89 140.03 C 336.60 140.01 333.32 140.01 330.04 139.94 C 330.00 136.66 330.01 133.38 330.05 130.10 Z" />
<path fill="#010101" d=" M 370.08 130.09 C 373.36 129.95 376.63 129.94 379.91 130.04 C 380.00 133.35 380.00 136.67 379.91 139.98 C 376.62 140.02 373.33 140.01 370.04 139.94 C 369.97 136.66 369.96 133.37 370.08 130.09 Z" />
<path fill="#ffffff" d=" M 50.05 140.06 C 60.03 139.94 70.02 140.04 80.00 140.00 C 80.00 143.33 79.98 146.65 79.98 149.98 C 76.66 149.97 73.33 150.00 70.01 149.85 C 69.99 153.23 69.99 156.61 70.00 159.99 C 63.33 160.00 56.67 160.00 50.00 159.99 C 50.03 153.35 49.96 146.70 50.05 140.06 Z" />
<path fill="#ffffff" d=" M 89.91 140.07 C 93.08 140.29 96.53 139.23 99.51 140.50 C 100.75 143.44 99.73 146.85 99.94 149.98 C 96.66 149.99 93.37 150.01 90.09 149.92 C 89.97 146.64 89.99 143.36 89.91 140.07 Z" />
<path fill="#010101" d=" M 250.04 140.07 C 253.16 140.28 256.56 139.25 259.51 140.49 C 259.64 140.81 259.89 141.45 260.02 141.77 C 260.07 147.84 259.99 153.92 260.01 159.99 C 256.67 160.00 253.34 160.00 250.00 160.00 C 250.01 153.35 249.96 146.71 250.04 140.07 Z" />
<path fill="#010101" d=" M 300.10 140.01 C 303.43 139.96 306.75 139.98 310.08 140.06 C 309.99 143.34 310.01 146.62 310.12 149.90 C 313.40 149.99 316.69 149.97 319.98 149.98 C 320.00 153.32 320.00 156.66 320.00 160.00 C 313.33 159.99 306.66 160.01 299.99 159.99 C 300.01 153.33 299.88 146.67 300.10 140.01 Z" />
<path fill="#ffffff" d=" M 150.01 160.00 C 153.34 160.00 156.67 160.00 160.00 160.00 C 160.00 163.34 160.00 166.68 159.98 170.02 C 156.61 170.02 153.24 170.01 149.87 170.07 C 150.04 166.71 150.01 163.35 150.01 160.00 Z" />
<path fill="#ffffff" d=" M 360.01 170.04 C 363.37 170.04 366.73 170.01 370.09 169.91 C 370.00 173.25 370.00 176.60 370.04 179.96 C 373.34 180.00 376.64 179.98 379.94 179.93 C 379.97 176.64 380.02 173.36 380.08 170.07 C 383.36 170.04 386.64 170.05 389.92 170.08 C 389.98 173.36 390.01 176.65 390.08 179.94 C 386.70 179.99 383.31 180.03 379.93 180.11 C 379.97 183.38 380.01 186.66 380.08 189.93 C 373.39 189.98 366.70 189.97 360.02 189.98 C 359.99 183.33 360.00 176.69 360.01 170.04 Z" />
<path fill="#010101" d=" M 370.09 169.91 C 373.42 170.03 376.75 170.05 380.08 170.07 C 380.02 173.36 379.97 176.64 379.94 179.93 C 376.64 179.98 373.34 180.00 370.04 179.96 C 370.00 176.60 370.00 173.25 370.09 169.91 Z" />
<path fill="#95d01d" d=" M 173.66 186.68 C 187.21 171.36 213.65 170.48 228.29 184.72 C 232.94 188.97 235.56 194.87 237.10 200.87 C 244.92 202.48 253.27 205.06 258.52 211.46 C 264.19 217.79 266.16 227.50 262.44 235.28 C 260.60 239.77 257.04 243.19 253.43 246.29 C 254.24 249.03 254.92 251.80 255.34 254.63 C 250.84 253.49 246.99 249.23 242.07 250.67 C 234.43 252.19 226.30 251.23 219.38 247.60 C 213.82 245.17 210.00 240.17 207.01 235.09 C 201.48 235.53 195.95 234.88 190.61 233.47 C 188.83 232.74 187.26 234.09 185.73 234.80 C 183.20 236.23 180.57 237.50 177.78 238.37 C 178.19 235.16 179.02 232.04 179.93 228.95 C 175.79 225.05 171.43 221.12 169.20 215.74 C 164.78 206.25 167.14 194.60 173.66 186.68 Z" />
<path fill="#010101" d=" M 169.85 179.94 C 171.59 179.98 173.33 180.03 175.08 180.07 C 173.32 181.83 171.53 183.58 170.07 185.60 C 170.05 183.71 169.96 181.82 169.85 179.94 Z" />
<path fill="#ffffff" d=" M 320.00 180.00 C 329.98 180.03 339.96 179.95 349.94 180.05 C 349.97 183.34 350.00 186.63 350.13 189.91 C 353.41 189.99 356.70 189.98 359.98 189.98 C 360.00 193.32 360.00 196.66 360.00 200.00 C 356.66 200.00 353.33 200.00 349.99 200.00 C 349.98 203.38 349.99 206.76 350.01 210.15 C 353.33 209.99 356.66 210.03 359.98 210.02 C 359.98 213.34 360.00 216.67 360.00 220.00 C 353.93 220.02 347.85 219.96 341.78 219.97 C 341.46 220.10 340.81 220.36 340.49 220.49 C 339.25 223.44 340.27 226.83 339.99 229.96 C 336.68 229.99 333.38 230.01 330.08 229.92 C 329.98 226.63 330.00 223.33 330.06 220.04 C 333.30 219.89 336.59 220.34 339.80 219.80 C 340.36 209.90 339.80 199.92 340.06 189.99 C 333.37 189.96 326.68 189.97 319.99 189.97 C 319.98 186.64 320.00 183.32 320.00 180.00 Z" />
<path fill="#010101" d=" M 379.93 180.11 C 383.31 180.03 386.70 179.99 390.08 179.94 C 390.01 183.26 389.99 186.59 389.93 189.91 C 386.65 189.95 383.36 189.97 380.08 189.93 C 380.01 186.66 379.97 183.38 379.93 180.11 Z" />
<path fill="#010101" d=" M 189.59 189.68 C 192.36 188.47 196.05 190.93 195.63 193.98 C 195.79 196.02 193.90 197.36 192.40 198.38 C 190.26 199.20 188.14 197.70 186.70 196.24 C 185.75 193.58 186.96 190.75 189.59 189.68 Z" />
<path fill="#010101" d=" M 212.90 190.00 C 215.74 188.17 220.00 190.58 219.70 193.97 C 219.88 196.25 217.55 197.79 215.72 198.64 C 213.78 198.64 212.10 197.40 210.35 196.70 C 210.56 194.33 210.25 191.14 212.90 190.00 Z" />
<path fill="#010101" d=" M 59.94 189.95 C 73.31 189.99 86.69 189.98 100.06 189.95 C 100.00 193.29 100.02 196.64 100.01 199.99 C 93.34 200.01 86.67 199.99 80.00 200.00 C 80.00 206.67 80.00 213.33 80.00 220.00 C 76.69 220.01 73.37 220.02 70.06 219.95 C 69.96 213.30 70.00 206.65 70.00 200.01 C 66.66 200.01 63.32 200.01 59.99 199.99 C 59.98 196.64 60.00 193.29 59.94 189.95 Z" />
<path fill="#ffffff" d=" M 212.39 211.43 C 218.58 204.05 228.70 201.73 237.94 201.90 C 243.36 202.68 248.55 204.85 253.09 207.89 C 260.01 212.77 264.48 221.76 262.21 230.23 C 261.09 236.58 256.37 241.33 251.52 245.17 C 252.08 247.48 252.61 249.80 253.00 252.16 C 249.66 250.83 246.54 247.58 242.69 248.72 C 233.88 250.97 224.07 249.57 216.47 244.49 C 211.90 240.90 207.65 236.20 206.66 230.28 C 205.14 223.56 207.26 216.11 212.39 211.43 Z" />
<path fill="#010101" d=" M 50.09 210.08 C 53.38 209.96 56.67 209.99 59.96 210.02 C 60.01 213.34 60.03 216.65 60.10 219.97 C 63.43 219.98 66.76 219.99 70.08 220.06 C 69.99 223.34 70.01 226.62 70.12 229.90 C 73.41 229.99 76.69 229.97 79.98 229.98 C 80.00 233.32 80.00 236.66 80.00 240.00 C 73.33 239.99 66.66 240.01 59.98 239.99 C 59.97 236.67 59.98 233.35 60.06 230.03 C 56.72 230.00 53.39 229.95 50.05 229.90 C 50.03 223.29 49.89 216.68 50.09 210.08 Z" />
<path fill="#010101" d=" M 221.23 216.31 C 222.60 215.48 223.84 213.77 225.64 214.30 C 226.84 214.69 227.78 215.60 228.84 216.26 C 229.12 218.90 227.43 222.47 224.28 221.65 C 221.54 221.41 221.33 218.45 221.23 216.31 Z" />
<path fill="#010101" d=" M 240.34 216.10 C 242.01 214.63 244.87 213.31 246.64 215.36 C 248.00 216.34 247.54 218.23 247.83 219.67 C 246.81 220.39 245.86 221.23 244.72 221.77 C 242.96 222.19 241.70 220.69 240.34 219.88 C 240.34 218.61 240.34 217.36 240.34 216.10 Z" />
<path fill="#010101" d=" M 267.31 220.10 C 271.54 220.00 275.77 219.98 280.00 220.00 C 280.00 223.33 279.99 226.67 279.97 230.01 C 275.89 230.03 271.80 229.98 267.72 230.06 C 268.13 226.74 267.94 223.39 267.31 220.10 Z" />
<path fill="#ffffff" d=" M 360.00 220.00 C 363.38 220.00 366.75 220.01 370.13 220.00 C 369.95 223.30 369.98 226.60 370.05 229.90 C 373.33 229.95 376.62 229.95 379.90 229.97 C 379.98 226.65 380.01 223.34 380.11 220.02 C 383.39 220.00 386.66 219.99 389.94 220.05 C 389.73 223.17 390.71 226.55 389.50 229.50 C 386.52 230.72 383.08 229.66 379.93 229.89 C 380.00 233.25 379.98 236.62 379.98 239.98 C 383.32 240.00 386.66 240.01 390.00 240.01 C 390.01 246.65 389.92 253.30 390.09 259.95 C 386.92 260.20 383.48 259.42 380.49 260.54 C 379.26 263.48 380.26 266.87 380.05 269.99 C 383.17 270.25 386.54 269.31 389.50 270.50 C 389.63 270.82 389.88 271.45 390.01 271.77 C 389.91 284.16 390.14 296.56 389.89 308.94 L 389.45 309.51 C 389.11 309.63 388.42 309.88 388.08 310.01 C 375.43 309.89 362.77 310.06 350.12 309.90 C 350.01 306.62 349.99 303.34 350.08 300.06 C 343.41 299.94 336.73 300.05 330.06 299.95 C 330.02 296.66 330.00 293.37 329.87 290.09 C 326.59 290.00 323.31 290.02 320.03 290.02 C 320.27 286.86 319.33 283.47 320.47 280.47 C 326.79 279.33 333.51 280.34 339.99 280.01 C 339.98 283.37 340.00 286.72 339.93 290.08 C 343.07 290.27 346.46 289.32 349.45 290.49 C 350.66 293.36 349.74 296.84 350.05 299.94 C 353.37 300.02 356.68 300.01 360.00 300.00 C 360.00 296.66 359.99 293.31 359.97 289.97 C 356.73 289.90 353.42 290.36 350.21 289.79 C 349.68 286.56 350.10 283.26 350.02 280.00 C 356.68 280.00 363.34 280.00 370.01 280.00 C 370.01 276.61 370.00 273.23 369.99 269.85 C 366.66 270.00 363.34 269.97 360.02 269.98 C 360.01 266.65 360.00 263.33 360.00 260.00 C 366.59 259.83 373.24 260.34 379.80 259.80 C 380.36 253.24 379.85 246.61 380.02 240.02 C 376.68 239.99 373.34 240.00 370.00 240.00 C 370.00 243.38 370.00 246.76 369.98 250.14 C 359.97 249.86 349.96 250.14 339.95 249.98 C 340.00 246.65 339.98 243.33 340.00 240.01 C 346.67 239.99 353.33 240.01 360.00 240.00 C 360.00 233.33 360.00 226.67 360.00 220.00 Z" />
<path fill="#ffffff" d=" M 99.92 229.92 C 103.08 230.25 106.50 229.31 109.49 230.51 C 110.71 233.46 109.70 236.86 109.99 239.99 C 106.65 239.99 103.31 239.99 99.98 240.02 C 99.97 243.33 99.98 246.65 100.06 249.97 C 96.72 249.98 93.38 250.01 90.04 250.15 C 90.00 246.77 90.01 243.39 90.00 240.01 C 93.34 240.01 96.68 240.01 100.02 239.98 C 100.03 236.63 100.02 233.27 99.92 229.92 Z" />
<path fill="#ffffff" d=" M 320.01 229.98 C 323.31 229.97 326.61 229.99 329.91 230.05 C 329.99 233.36 330.01 236.68 330.01 240.00 C 326.67 240.00 323.33 240.00 320.00 240.00 C 320.00 236.66 320.00 233.32 320.01 229.98 Z" />
<path fill="#010101" d=" M 29.99 240.00 C 36.66 240.00 43.33 240.00 50.00 240.00 C 49.94 249.97 50.15 259.94 49.88 269.90 C 46.60 270.00 43.31 270.02 40.02 270.02 C 39.99 263.35 40.00 256.69 39.98 250.02 C 36.66 250.03 33.33 249.99 30.01 250.15 C 29.99 246.76 29.99 243.38 29.99 240.00 Z" />
<path fill="#010101" d=" M 120.00 240.00 C 123.33 240.00 126.67 240.00 130.01 240.00 C 130.01 243.38 130.01 246.76 129.99 250.15 C 126.66 249.99 123.34 250.03 120.02 250.02 C 120.00 246.68 120.00 243.34 120.00 240.00 Z" />
<path fill="#010101" d=" M 139.99 240.01 C 143.32 239.99 146.66 240.00 150.00 240.00 C 150.00 249.97 150.03 259.93 149.95 269.90 C 146.65 269.96 143.34 269.99 140.04 269.99 C 139.91 260.00 140.01 250.00 139.99 240.01 Z" />
<path fill="#010101" d=" M 160.00 240.00 C 163.33 240.00 166.66 240.00 170.00 240.00 C 169.99 243.35 169.97 246.71 170.13 250.06 C 166.76 250.02 163.39 250.03 160.02 250.02 C 160.00 246.68 160.00 243.34 160.00 240.00 Z" />
<path fill="#010101" d=" M 270.00 240.00 C 273.33 240.00 276.66 240.00 280.00 240.00 C 280.00 243.32 280.00 246.65 280.00 249.97 C 283.29 250.00 286.58 250.01 289.88 250.09 C 290.00 253.37 290.02 256.66 290.06 259.95 C 293.34 260.00 296.63 260.00 299.91 260.03 C 300.00 263.33 300.00 266.64 299.92 269.95 C 293.29 269.98 286.65 269.97 280.02 269.98 C 279.98 279.99 280.01 289.99 280.00 300.00 C 283.38 300.00 286.75 299.99 290.13 300.00 C 289.85 293.34 290.05 286.67 290.00 280.00 C 293.34 280.00 296.68 279.99 300.02 280.02 C 299.97 290.00 300.13 299.98 299.90 309.96 C 293.28 310.13 286.65 309.90 280.02 309.98 C 279.98 316.66 280.02 323.34 279.98 330.02 C 276.66 330.02 273.33 329.99 270.01 330.15 C 269.99 326.76 269.99 323.38 270.00 320.01 C 266.67 320.01 263.34 320.00 260.01 320.01 C 260.02 323.33 260.00 326.66 260.07 329.99 C 253.38 330.05 246.70 330.03 240.02 330.02 C 240.00 326.68 240.00 323.34 240.00 320.00 C 243.33 320.00 246.66 320.00 250.00 320.00 C 249.99 316.61 249.99 313.23 250.04 309.85 C 256.67 310.09 263.31 309.95 269.94 309.91 C 270.01 303.30 270.00 296.70 269.94 290.10 C 266.64 290.04 263.34 290.00 260.05 290.01 C 259.99 293.33 259.98 296.65 259.91 299.98 C 256.62 300.02 253.34 300.01 250.06 299.95 C 250.00 296.66 249.97 293.38 249.88 290.10 C 246.59 290.02 243.31 290.00 240.03 289.97 C 240.01 293.31 240.00 296.66 240.00 300.00 C 236.62 300.01 233.24 300.02 229.86 299.94 C 230.05 303.26 230.05 306.59 229.92 309.92 C 226.62 310.03 223.33 310.01 220.03 309.97 C 219.94 303.33 219.93 296.68 220.09 290.04 C 226.72 289.87 233.35 290.09 239.98 290.02 C 240.00 286.68 240.00 283.34 240.00 280.00 C 246.67 279.99 253.34 280.02 260.01 279.98 C 260.07 276.72 259.68 273.42 260.19 270.19 C 266.76 269.61 273.41 270.15 280.01 269.97 C 280.01 266.64 280.00 263.32 279.99 260.00 C 276.61 259.99 273.23 259.98 269.86 260.07 C 270.14 253.39 269.93 246.69 270.00 240.00 Z" />
<path fill="#010101" d=" M 257.51 247.22 C 258.34 246.42 259.16 245.61 259.98 244.80 C 259.95 252.61 259.97 260.42 260.04 268.22 C 259.90 268.54 259.64 269.18 259.51 269.51 C 256.57 270.76 253.17 269.71 250.05 269.88 C 250.01 265.62 249.94 261.36 249.95 257.10 C 252.21 257.64 254.93 258.78 256.99 257.08 C 260.55 254.93 258.45 250.30 257.51 247.22 Z" />
<path fill="#ffffff" d=" M 320.03 249.97 C 323.31 250.00 326.60 250.02 329.89 250.11 C 329.98 253.38 330.01 256.66 329.92 259.94 C 336.60 260.06 343.28 259.94 349.96 260.06 C 349.99 263.34 349.98 266.62 349.94 269.91 C 343.31 270.00 336.69 269.99 330.06 269.91 C 330.02 266.62 330.05 263.34 329.94 260.06 C 326.62 259.98 323.31 259.99 320.00 259.99 C 320.00 256.65 320.01 253.31 320.03 249.97 Z" />
<path fill="#ffffff" d=" M 90.05 260.05 C 93.33 259.99 96.61 260.00 99.90 260.03 C 99.97 263.34 100.00 266.65 99.97 269.97 C 96.68 269.99 93.38 270.01 90.08 269.92 C 89.97 266.63 89.99 263.34 90.05 260.05 Z" />
<path fill="#ffffff" d=" M 309.87 269.93 C 313.24 269.99 316.60 269.98 319.97 269.98 C 319.87 273.25 320.33 276.57 319.81 279.81 C 316.58 280.32 313.27 279.87 310.00 279.99 C 310.01 276.64 310.03 273.28 309.87 269.93 Z" />
<path fill="#010101" d=" M 40.00 280.00 C 43.34 280.00 46.67 280.00 50.01 280.00 C 50.01 283.38 50.01 286.76 49.99 290.15 C 46.66 289.99 43.34 290.03 40.02 290.02 C 40.01 293.35 40.00 296.67 40.00 300.00 C 43.38 300.00 46.76 300.01 50.14 299.93 C 49.86 306.61 50.07 313.31 50.00 320.00 C 43.33 320.00 36.66 320.00 29.99 320.00 C 29.99 316.61 29.99 313.23 30.01 309.85 C 33.33 310.00 36.66 309.97 39.98 309.98 C 39.99 306.65 40.00 303.32 40.00 300.00 C 36.62 299.99 33.23 299.98 29.85 300.07 C 30.00 296.75 30.01 293.41 30.13 290.09 C 33.41 290.01 36.70 290.02 39.99 289.99 C 40.00 286.66 40.00 283.33 40.00 280.00 Z" />
<path fill="#ffffff" d=" M 109.99 280.00 C 113.33 280.00 116.66 280.00 120.00 280.00 C 120.00 283.34 120.00 286.69 119.99 290.03 C 116.69 290.03 113.39 290.01 110.09 289.95 C 110.00 286.63 109.99 283.32 109.99 280.00 Z" />
<path fill="#ffffff" d=" M 100.11 290.03 C 103.38 289.94 106.65 289.96 109.92 290.09 C 110.03 293.36 110.01 296.64 109.96 299.92 C 106.71 299.88 103.41 300.37 100.20 299.80 C 99.64 296.58 100.10 293.28 100.11 290.03 Z" />
<path fill="#010101" d=" M 370.05 290.11 C 373.35 290.04 376.66 290.01 379.97 290.02 C 380.04 293.34 380.02 296.66 379.90 299.98 C 376.61 300.02 373.33 300.01 370.05 299.94 C 369.97 296.66 369.99 293.38 370.05 290.11 Z" />
<path fill="#010101" d=" M 80.02 309.98 C 86.65 309.94 93.29 310.01 99.93 309.91 C 100.02 313.27 100.03 316.63 100.02 319.99 C 93.34 320.01 86.67 319.99 80.00 320.00 C 80.00 316.66 80.00 313.32 80.02 309.98 Z" />
<path fill="#010101" d=" M 179.93 309.91 C 186.61 310.01 193.30 309.94 199.98 309.98 C 200.00 313.32 200.00 316.66 200.00 320.00 C 206.67 320.00 213.34 319.99 220.02 320.01 C 220.03 323.37 220.02 326.73 219.93 330.08 C 216.64 330.03 213.35 330.04 210.06 330.09 C 210.01 333.42 209.98 336.75 210.14 340.07 C 200.13 339.90 190.11 340.08 180.10 339.98 C 179.82 329.96 180.10 319.93 179.93 309.91 Z" />
<path fill="#010101" d=" M 229.87 309.94 C 233.24 309.98 236.61 309.97 239.98 309.98 C 240.00 313.32 240.00 316.66 240.00 320.00 C 236.67 320.00 233.33 320.00 230.00 320.00 C 230.01 316.64 230.03 313.29 229.87 309.94 Z" />
<path fill="#ffffff" d=" M 320.00 320.00 C 330.00 320.00 340.00 320.00 350.00 320.01 C 349.97 329.97 350.04 339.94 349.94 349.91 C 339.97 350.04 329.99 349.93 320.02 349.98 C 319.99 339.98 320.00 329.99 320.00 320.00 Z" />
<path fill="#010101" d=" M 30.12 330.10 C 53.40 329.92 76.69 330.06 99.97 330.03 C 100.08 353.35 100.00 376.67 100.01 399.99 C 76.67 400.01 53.33 399.99 30.00 400.00 C 30.07 376.70 29.83 353.40 30.12 330.10 Z" />
<path fill="#010101" d=" M 220.08 330.04 C 223.37 330.04 226.66 330.04 229.95 330.10 C 230.01 333.38 230.02 336.66 229.95 339.94 C 226.67 340.01 223.38 340.02 220.09 339.98 C 219.99 336.66 220.00 333.35 220.08 330.04 Z" />
<path fill="#010101" d=" M 330.05 330.11 C 333.35 330.04 336.66 330.01 339.97 330.02 C 340.04 333.34 340.02 336.66 339.90 339.98 C 336.61 340.02 333.33 340.01 330.05 339.94 C 329.97 336.66 329.98 333.38 330.05 330.11 Z" />
<path fill="#ffffff" d=" M 40.00 340.00 C 56.71 340.00 73.42 340.01 90.13 340.00 C 89.74 356.63 90.25 373.27 89.87 389.91 C 73.25 390.05 56.63 389.92 40.02 389.98 C 39.98 373.32 40.01 356.66 40.00 340.00 Z" />
<path fill="#010101" d=" M 240.00 340.00 C 249.98 340.02 259.97 339.93 269.95 340.06 C 270.03 343.34 270.04 346.63 269.91 349.92 C 259.95 350.09 249.99 349.93 240.03 350.01 C 240.01 346.67 239.99 343.34 240.00 340.00 Z" />
<path fill="#010101" d=" M 290.04 340.08 C 293.16 340.28 296.56 339.25 299.51 340.50 C 300.75 343.44 299.73 346.85 299.95 349.98 C 296.66 350.01 293.37 350.03 290.09 349.92 C 289.96 346.64 289.97 343.35 290.04 340.08 Z" />
<path fill="#010101" d=" M 50.04 349.85 C 60.02 350.12 70.00 349.88 79.98 349.98 C 80.02 359.99 79.99 369.99 80.00 380.00 C 70.02 379.98 60.03 380.07 50.05 379.94 C 49.96 369.91 49.98 359.88 50.04 349.85 Z" />
<path fill="#ffffff" d=" M 150.02 349.86 C 153.34 350.01 156.66 349.98 159.98 349.98 C 160.00 353.32 160.00 356.66 160.00 360.00 C 156.66 360.00 153.33 360.00 150.00 360.00 C 149.99 356.62 150.00 353.24 150.02 349.86 Z" />
<path fill="#010101" d=" M 190.01 349.85 C 193.33 350.00 196.66 349.97 199.98 349.98 C 200.00 353.32 200.00 356.66 200.00 360.00 C 196.66 360.00 193.33 360.00 189.99 360.00 C 189.99 356.61 189.99 353.23 190.01 349.85 Z" />
<path fill="#010101" d=" M 219.94 350.02 C 223.28 350.01 226.62 349.99 229.96 349.84 C 230.01 353.22 230.01 356.61 230.00 360.00 C 226.66 360.00 223.32 360.00 219.98 359.99 C 219.98 356.66 220.00 353.34 219.94 350.02 Z" />
<path fill="#010101" d=" M 269.87 349.94 C 276.62 349.99 283.37 349.99 290.13 349.94 C 289.88 363.26 290.03 376.59 290.06 389.91 C 293.35 389.95 296.64 389.97 299.93 389.92 C 300.02 393.27 300.03 396.63 300.02 399.99 C 293.34 400.01 286.67 399.99 280.00 400.00 C 280.00 386.67 280.00 373.33 280.00 360.00 C 276.67 360.00 273.33 360.00 270.00 360.00 C 270.01 363.38 270.01 366.77 269.96 370.16 C 266.62 370.01 263.28 369.98 259.94 369.98 C 260.00 366.66 259.98 363.33 259.99 360.01 C 263.32 359.99 266.66 359.99 270.00 359.99 C 270.00 356.64 270.03 353.28 269.87 349.94 Z" />
<path fill="#010101" d=" M 109.99 360.00 C 113.33 360.00 116.66 360.00 120.00 360.00 C 120.00 363.34 120.00 366.68 119.98 370.02 C 116.66 370.02 113.33 369.99 110.01 370.15 C 109.99 366.76 109.99 363.38 109.99 360.00 Z" />
<path fill="#010101" d=" M 200.00 360.00 C 206.67 360.01 213.35 359.98 220.02 360.02 C 220.02 363.36 220.00 366.71 220.06 370.06 C 213.37 369.99 206.68 370.05 199.99 370.03 C 199.99 373.35 200.00 376.67 200.00 380.00 C 213.34 379.99 226.67 380.00 240.00 380.00 C 240.00 373.33 240.00 366.66 240.00 360.00 C 243.33 360.00 246.67 360.00 250.00 360.00 C 250.01 373.33 250.01 386.67 250.00 400.00 C 246.67 400.00 243.33 400.00 240.00 400.00 C 240.00 396.67 240.00 393.35 239.99 390.02 C 236.67 390.01 233.34 390.00 230.02 389.86 C 230.00 393.24 229.99 396.62 230.00 400.00 C 226.66 400.00 223.32 400.00 219.98 399.99 C 219.97 396.67 219.98 393.34 220.06 390.03 C 216.72 390.02 213.38 389.99 210.04 389.85 C 210.00 393.23 210.01 396.61 210.00 400.00 C 206.67 400.00 203.33 400.00 200.00 400.00 C 200.00 396.66 200.00 393.32 199.98 389.98 C 196.61 389.97 193.24 389.99 189.87 389.93 C 190.03 393.28 190.01 396.64 190.00 400.00 C 186.66 400.00 183.33 400.00 179.99 399.99 C 179.98 396.63 179.99 393.28 179.94 389.93 C 183.26 390.00 186.59 390.02 189.92 389.92 C 190.11 383.31 189.84 376.70 190.12 370.09 C 193.41 370.01 196.70 370.02 199.99 369.99 C 200.00 366.65 200.00 363.33 200.00 360.00 Z" />
<path fill="#010101" d=" M 130.03 370.12 C 133.34 370.04 136.65 370.01 139.96 370.01 C 140.01 373.33 140.03 376.65 140.10 379.97 C 143.43 379.98 146.76 379.99 150.09 380.06 C 149.93 386.70 150.03 393.35 150.00 400.00 C 140.00 400.00 130.00 400.00 120.00 400.00 C 120.00 393.33 120.00 386.66 120.00 380.00 C 123.38 379.99 126.76 379.98 130.14 380.06 C 129.96 376.75 129.94 373.43 130.03 370.12 Z" />
<path fill="#010101" d=" M 170.09 370.08 C 173.39 369.96 176.68 369.99 179.98 370.03 C 180.04 373.35 180.02 376.67 179.90 379.98 C 176.57 380.04 173.24 380.02 169.91 379.94 C 169.99 376.65 169.97 373.36 170.09 370.08 Z" />
<path fill="#010101" d=" M 259.94 390.02 C 263.28 390.01 266.62 389.99 269.96 389.84 C 270.01 393.22 270.01 396.61 270.00 400.00 C 266.66 400.00 263.32 400.00 259.99 399.99 C 259.98 396.66 260.00 393.34 259.94 390.02 Z" />
<path fill="#010101" d=" M 379.94 389.95 C 386.62 390.01 393.30 389.94 399.98 389.98 C 400.00 393.32 400.00 396.66 400.00 400.00 C 393.33 399.99 386.66 400.01 379.99 399.99 C 379.98 396.64 379.99 393.29 379.94 389.95 Z" />
</svg>
